0
SECTION
2
HEADER
9
$INSUNITS
70
4
9
$ACADVER
1
AC1014
9
$HANDSEED
5
FFFF
0
ENDSEC
0
SECTION
2
TABLES
0
TABLE
2
VPORT
5
8
100
AcDbSymbolTable
0
ENDTAB
0
TABLE
2
LTYPE
5
5
100
AcDbSymbolTable
0
LTYPE
5
14
100
AcDbSymbolTableRecord
100
AcDbLinetypeTableRecord
2
BYBLOCK
70
0
0
LTYPE
5
15
100
AcDbSymbolTableRecord
100
AcDbLinetypeTableRecord
2
BYLAYER
70
0
0
ENDTAB
0
TABLE
2
LAYER
5
2
100
AcDbSymbolTable
70
2
0
LAYER
5
50
100
AcDbSymbolTableRecord
100
AcDbLayerTableRecord
2
0
70
0
6
CONTINUOUS
0
ENDTAB
0
TABLE
2
STYLE
5
3
100
AcDbSymbolTable
70
1
0
STYLE
5
11
100
AcDbSymbolTableRecord
100
AcDbTextStyleTableRecord
2
STANDARD
70
0
0
ENDTAB
0
TABLE
2
VIEW
5
6
100
AcDbSymbolTable
70
0
0
ENDTAB
0
TABLE
2
UCS
5
7
100
AcDbSymbolTable
70
0
0
ENDTAB
0
TABLE
2
APPID
5
9
100
AcDbSymbolTable
70
2
0
APPID
5
12
100
AcDbSymbolTableRecord
100
AcDbRegAppTableRecord
2
ACAD
70
0
0
ENDTAB
0
TABLE
2
DIMSTYLE
5
A
100
AcDbSymbolTable
70
1
0
ENDTAB
0
TABLE
2
BLOCK_RECORD
5
1
100
AcDbSymbolTable
70
1
0
BLOCK_RECORD
5
1F
100
AcDbSymbolTableRecord
100
AcDbBlockTableRecord
2
*MODEL_SPACE
0
BLOCK_RECORD
5
1B
100
AcDbSymbolTableRecord
100
AcDbBlockTableRecord
2
*PAPER_SPACE
0
ENDTAB
0
ENDSEC
0
SECTION
2
BLOCKS
0
BLOCK
5
20
100
AcDbEntity
100
AcDbBlockBegin
2
*MODEL_SPACE
0
ENDBLK
5
21
100
AcDbEntity
100
AcDbBlockEnd
0
BLOCK
5
1C
100
AcDbEntity
100
AcDbBlockBegin
2
*PAPER_SPACE
0
ENDBLK
5
1D
100
AcDbEntity
100
AcDbBlockEnd
0
ENDSEC
0
SECTION
2
ENTITIES
0
CIRCLE
5
100
100
AcDbEntity
8
0
100
AcDbCircle
10
171.69999999999999
20
870
30
0
40
7.9999999999999716
0
CIRCLE
5
101
100
AcDbEntity
8
0
100
AcDbCircle
10
206.69999999999999
20
870
30
0
40
8.0000000000000426
0
CIRCLE
5
102
100
AcDbEntity
8
0
100
AcDbCircle
10
108.37499999999994
20
606.57500000000005
30
0
40
2.5
0
CIRCLE
5
103
100
AcDbEntity
8
0
100
AcDbCircle
10
108.37499999999994
20
293.37499999999994
30
0
40
2.5
0
CIRCLE
5
104
100
AcDbEntity
8
0
100
AcDbCircle
10
108.37499999999993
20
122.62499999999996
30
0
40
2.5
0
CIRCLE
5
105
100
AcDbEntity
8
0
100
AcDbCircle
10
108.37499999999993
20
435.82499999999993
30
0
40
2.5
0
CIRCLE
5
106
100
AcDbEntity
8
0
100
AcDbCircle
10
108.37499999999993
20
749.02500000000009
30
0
40
2.5
0
CIRCLE
5
107
100
AcDbEntity
8
0
100
AcDbCircle
10
108.37499999999993
20
592.42499999999995
30
0
40
2.5
0
CIRCLE
5
108
100
AcDbEntity
8
0
100
AcDbCircle
10
108.37499999999993
20
279.22499999999997
30
0
40
2.5
0
CIRCLE
5
109
100
AcDbEntity
8
0
100
AcDbCircle
10
108.37499999999994
20
136.77499999999995
30
0
40
2.5
0
CIRCLE
5
110
100
AcDbEntity
8
0
100
AcDbCircle
10
108.37499999999994
20
449.97499999999997
30
0
40
2.5
0
CIRCLE
5
111
100
AcDbEntity
8
0
100
AcDbCircle
10
108.37499999999994
20
763.17499999999995
30
0
40
2.5
0
LWPOLYLINE
5
112
100
AcDbEntity
8
0
100
AcDbPolyline
90
4
70
1
43
0.0
10
246.69999999999999
20
900
10
246.70000000000002
20
0
10
-246.69999999999987
20
0
10
-246.6999999999999
20
900
0
LWPOLYLINE
5
113
100
AcDbEntity
8
0
100
AcDbPolyline
90
4
70
1
43
0.0
10
-98.500000000000057
20
830.29999999999995
10
-98.500000000000014
20
680.29999999999995
10
98.500000000000057
20
680.29999999999995
10
98.500000000000057
20
830.29999999999984
0
LWPOLYLINE
5
114
100
AcDbEntity
8
0
100
AcDbPolyline
90
4
70
1
43
0.0
10
-98.500000000000057
20
204.69999999999996
10
-98.500000000000014
20
54.69999999999996
10
98.500000000000057
20
54.699999999999953
10
98.500000000000057
20
204.69999999999987
0
LWPOLYLINE
5
115
100
AcDbEntity
8
0
100
AcDbPolyline
90
4
70
1
43
0.0
10
-98.500000000000057
20
673.89999999999998
10
-98.500000000000014
20
523.89999999999998
10
98.500000000000057
20
523.89999999999998
10
98.500000000000057
20
673.89999999999986
0
LWPOLYLINE
5
116
100
AcDbEntity
8
0
100
AcDbPolyline
90
4
70
1
43
0.0
10
-98.500000000000057
20
361.10000000000002
10
-98.500000000000014
20
211.09999999999997
10
98.500000000000057
20
211.09999999999997
10
98.500000000000057
20
361.09999999999985
0
LWPOLYLINE
5
117
100
AcDbEntity
8
0
100
AcDbPolyline
90
4
70
1
43
0.0
10
-98.500000000000057
20
517.5
10
-98.500000000000014
20
367.5
10
98.500000000000057
20
367.5
10
98.500000000000057
20
517.49999999999989
0
CIRCLE
5
118
100
AcDbEntity
8
0
100
AcDbCircle
10
-146.6999999999999
20
5
30
0
40
1.9999999999999929
0
CIRCLE
5
119
100
AcDbEntity
8
0
100
AcDbCircle
10
146.69999999999993
20
895
30
0
40
1.9999999999999929
0
CIRCLE
5
120
100
AcDbEntity
8
0
100
AcDbCircle
10
146.69999999999999
20
5
30
0
40
1.9999999999999929
0
CIRCLE
5
121
100
AcDbEntity
8
0
100
AcDbCircle
10
-146.6999999999999
20
895
30
0
40
1.9999999999999929
0
LWPOLYLINE
5
122
100
AcDbEntity
8
0
100
AcDbPolyline
90
4
70
1
43
0.0
10
-98.5
20
33.699999999999982
10
-101.7
20
33.699999999999982
10
-101.7
20
12.699999999999999
10
-98.499999999999972
20
12.699999999999999
0
LWPOLYLINE
5
123
100
AcDbEntity
8
0
100
AcDbPolyline
90
4
70
1
43
0.0
10
-98.499999999999972
20
872.30000000000007
10
-101.7
20
872.30000000000007
10
-101.7
20
857.30000000000007
10
-98.499999999999972
20
857.30000000000007
0
LWPOLYLINE
5
124
100
AcDbEntity
8
0
100
AcDbPolyline
90
4
70
1
43
0.0
10
101.69999999999989
20
872.30000000000007
10
98.500000000026688
20
872.30000000000007
10
98.500000000001364
20
857.30000000000007
10
101.70000000008861
20
857.30000000000007
0
LWPOLYLINE
5
125
100
AcDbEntity
8
0
100
AcDbPolyline
90
4
70
1
43
0.0
10
101.70000000000003
20
33.699999999999996
10
98.500000000000028
20
33.699999999999996
10
98.500000000000028
20
12.700000000000017
10
101.70000000000003
20
12.700000000000017
0
CIRCLE
5
126
100
AcDbEntity
8
0
100
AcDbCircle
10
87.62500000000054
20
762.37500000000068
30
0
40
2.5
0
CIRCLE
5
127
100
AcDbEntity
8
0
100
AcDbCircle
10
87.62500000000054
20
748.22500000000059
30
0
40
2.5
0
CIRCLE
5
128
100
AcDbEntity
8
0
100
AcDbCircle
10
-87.749999999999503
20
742.55000000000064
30
0
40
3.0000000000000071
0
CIRCLE
5
129
100
AcDbEntity
8
0
100
AcDbCircle
10
-87.749999999999474
20
768.05000000000064
30
0
40
2.9999999999999893
0
LWPOLYLINE
5
130
100
AcDbEntity
8
0
100
AcDbPolyline
90
4
70
1
43
0.0
10
98.000000000000554
20
680.80000000000064
10
98.000000000000597
20
829.80000000000064
10
-97.999999999999488
20
829.80000000000064
10
-97.999999999999531
20
680.80000000000064
0
CIRCLE
5
131
100
AcDbEntity
8
0
100
AcDbCircle
10
87.624999999999943
20
605.97499999999991
30
0
40
2.5
0
CIRCLE
5
132
100
AcDbEntity
8
0
100
AcDbCircle
10
87.624999999999943
20
591.82499999999993
30
0
40
2.5
0
CIRCLE
5
133
100
AcDbEntity
8
0
100
AcDbCircle
10
-87.750000000000114
20
586.14999999999998
30
0
40
3.0000000000000071
0
CIRCLE
5
134
100
AcDbEntity
8
0
100
AcDbCircle
10
-87.750000000000071
20
611.64999999999986
30
0
40
2.9999999999999893
0
LWPOLYLINE
5
135
100
AcDbEntity
8
0
100
AcDbPolyline
90
4
70
1
43
0.0
10
97.999999999999957
20
524.39999999999986
10
97.999999999999986
20
673.39999999999986
10
-98.000000000000099
20
673.39999999999986
10
-98.000000000000128
20
524.39999999999986
0
CIRCLE
5
136
100
AcDbEntity
8
0
100
AcDbCircle
10
87.624999999999886
20
449.57499999999982
30
0
40
2.5
0
CIRCLE
5
137
100
AcDbEntity
8
0
100
AcDbCircle
10
87.624999999999886
20
435.42499999999984
30
0
40
2.5
0
CIRCLE
5
138
100
AcDbEntity
8
0
100
AcDbCircle
10
-87.750000000000171
20
429.74999999999977
30
0
40
3.0000000000000071
0
CIRCLE
5
139
100
AcDbEntity
8
0
100
AcDbCircle
10
-87.750000000000128
20
455.24999999999977
30
0
40
2.9999999999999893
0
LWPOLYLINE
5
140
100
AcDbEntity
8
0
100
AcDbPolyline
90
4
70
1
43
0.0
10
97.999999999999915
20
367.99999999999977
10
97.999999999999943
20
516.99999999999977
10
-98.000000000000142
20
516.99999999999977
10
-98.000000000000171
20
367.99999999999983
0
CIRCLE
5
141
100
AcDbEntity
8
0
100
AcDbCircle
10
87.624999999999659
20
293.17499999999944
30
0
40
2.5
0
CIRCLE
5
142
100
AcDbEntity
8
0
100
AcDbCircle
10
87.624999999999659
20
279.02499999999947
30
0
40
2.5
0
CIRCLE
5
143
100
AcDbEntity
8
0
100
AcDbCircle
10
-87.750000000000398
20
273.34999999999945
30
0
40
3.0000000000000071
0
CIRCLE
5
144
100
AcDbEntity
8
0
100
AcDbCircle
10
-87.750000000000355
20
298.84999999999945
30
0
40
2.9999999999999893
0
LWPOLYLINE
5
145
100
AcDbEntity
8
0
100
AcDbPolyline
90
4
70
1
43
0.0
10
97.999999999999673
20
211.59999999999945
10
97.999999999999702
20
360.59999999999945
10
-98.000000000000384
20
360.59999999999945
10
-98.000000000000412
20
211.59999999999945
0
CIRCLE
5
146
100
AcDbEntity
8
0
100
AcDbCircle
10
87.624999999999773
20
136.77499999999969
30
0
40
2.5
0
CIRCLE
5
147
100
AcDbEntity
8
0
100
AcDbCircle
10
87.624999999999773
20
122.62499999999972
30
0
40
2.5
0
CIRCLE
5
148
100
AcDbEntity
8
0
100
AcDbCircle
10
-87.75000000000027
20
116.94999999999966
30
0
40
3.0000000000000071
0
CIRCLE
5
149
100
AcDbEntity
8
0
100
AcDbCircle
10
-87.750000000000227
20
142.44999999999968
30
0
40
2.9999999999999893
0
LWPOLYLINE
5
150
100
AcDbEntity
8
0
100
AcDbPolyline
90
4
70
1
43
0.0
10
97.999999999999815
20
55.199999999999676
10
97.999999999999829
20
204.19999999999965
10
-98.000000000000256
20
204.19999999999965
10
-98.00000000000027
20
55.199999999999683
0
CIRCLE
5
151
100
AcDbEntity
8
0
100
AcDbCircle
10
-209.99999999999997
20
574.50000000000023
30
0
40
2.5
0
CIRCLE
5
152
100
AcDbEntity
8
0
100
AcDbCircle
10
-209.99999999999997
20
261.30000000000007
30
0
40
2.5
0
CIRCLE
5
153
100
AcDbEntity
8
0
100
AcDbCircle
10
-210
20
104.70000000000012
30
0
40
2.5
0
CIRCLE
5
154
100
AcDbEntity
8
0
100
AcDbCircle
10
-209.99999999999997
20
417.90000000000015
30
0
40
2.5
0
CIRCLE
5
155
100
AcDbEntity
8
0
100
AcDbCircle
10
-167
20
731.10000000000014
30
0
40
2.5
0
CIRCLE
5
156
100
AcDbEntity
8
0
100
AcDbCircle
10
-167
20
574.50000000000023
30
0
40
2.5
0
CIRCLE
5
157
100
AcDbEntity
8
0
100
AcDbCircle
10
-167
20
261.30000000000007
30
0
40
2.5
0
CIRCLE
5
158
100
AcDbEntity
8
0
100
AcDbCircle
10
-167.00000000000003
20
104.70000000000012
30
0
40
2.5
0
CIRCLE
5
159
100
AcDbEntity
8
0
100
AcDbCircle
10
-167
20
417.90000000000015
30
0
40
2.5
0
CIRCLE
5
160
100
AcDbEntity
8
0
100
AcDbCircle
10
-209.99999999999997
20
731.10000000000014
30
0
40
2.5
0
CIRCLE
5
161
100
AcDbEntity
8
0
100
AcDbCircle
10
-147
20
116.19999999999992
30
0
40
3.0000000000000071
0
CIRCLE
5
162
100
AcDbEntity
8
0
100
AcDbCircle
10
-108.50000000000001
20
116.19999999999993
30
0
40
3.0000000000000071
0
CIRCLE
5
163
100
AcDbEntity
8
0
100
AcDbCircle
10
-147
20
143.19999999999993
30
0
40
2.9999999999999893
0
CIRCLE
5
164
100
AcDbEntity
8
0
100
AcDbCircle
10
-108.50000000000001
20
143.19999999999993
30
0
40
3.0000000000000071
0
CIRCLE
5
165
100
AcDbEntity
8
0
100
AcDbCircle
10
-108.50000000000001
20
741.79999999999995
30
0
40
3.0000000000000071
0
CIRCLE
5
166
100
AcDbEntity
8
0
100
AcDbCircle
10
-108.50000000000001
20
585.39999999999986
30
0
40
3.0000000000000071
0
CIRCLE
5
167
100
AcDbEntity
8
0
100
AcDbCircle
10
-108.50000000000001
20
428.99999999999989
30
0
40
3.0000000000000071
0
CIRCLE
5
168
100
AcDbEntity
8
0
100
AcDbCircle
10
-108.50000000000001
20
272.59999999999997
30
0
40
3.0000000000000071
0
CIRCLE
5
169
100
AcDbEntity
8
0
100
AcDbCircle
10
-108.50000000000001
20
299.59999999999991
30
0
40
3.0000000000000071
0
CIRCLE
5
170
100
AcDbEntity
8
0
100
AcDbCircle
10
-108.50000000000001
20
455.99999999999994
30
0
40
3.0000000000000071
0
CIRCLE
5
171
100
AcDbEntity
8
0
100
AcDbCircle
10
-108.50000000000001
20
612.39999999999998
30
0
40
3.0000000000000071
0
CIRCLE
5
172
100
AcDbEntity
8
0
100
AcDbCircle
10
-108.50000000000001
20
768.79999999999995
30
0
40
3.0000000000000071
0
CIRCLE
5
173
100
AcDbEntity
8
0
100
AcDbCircle
10
-147
20
741.79999999999995
30
0
40
3.0000000000000071
0
CIRCLE
5
174
100
AcDbEntity
8
0
100
AcDbCircle
10
-147
20
585.39999999999986
30
0
40
3.0000000000000071
0
CIRCLE
5
175
100
AcDbEntity
8
0
100
AcDbCircle
10
-147
20
428.99999999999989
30
0
40
3.0000000000000071
0
CIRCLE
5
176
100
AcDbEntity
8
0
100
AcDbCircle
10
-147
20
272.59999999999991
30
0
40
3.0000000000000071
0
CIRCLE
5
177
100
AcDbEntity
8
0
100
AcDbCircle
10
-147
20
299.59999999999991
30
0
40
2.9999999999999893
0
CIRCLE
5
178
100
AcDbEntity
8
0
100
AcDbCircle
10
-147
20
455.99999999999994
30
0
40
2.9999999999999893
0
CIRCLE
5
179
100
AcDbEntity
8
0
100
AcDbCircle
10
-147
20
612.39999999999998
30
0
40
2.9999999999999893
0
CIRCLE
5
180
100
AcDbEntity
8
0
100
AcDbCircle
10
-147
20
768.79999999999995
30
0
40
2.9999999999999893
0
ENDSEC
0
SECTION
2
OBJECTS
0
DICTIONARY
5
C
100
AcDbDictionary
3
ACAD_GROUP
350
D
3
ACAD_MLINESTYLE
350
17
0
DICTIONARY
5
D
100
AcDbDictionary
0
DICTIONARY
5
1A
330
C
100
AcDbDictionary
0
DICTIONARY
5
17
100
AcDbDictionary
0
ENDSEC
0
EOF
