0
SECTION
2
HEADER
9
$INSUNITS
70
4
9
$ACADVER
1
AC1014
9
$HANDSEED
5
FFFF
0
ENDSEC
0
SECTION
2
TABLES
0
TABLE
2
VPORT
5
8
100
AcDbSymbolTable
0
ENDTAB
0
TABLE
2
LTYPE
5
5
100
AcDbSymbolTable
0
LTYPE
5
14
100
AcDbSymbolTableRecord
100
AcDbLinetypeTableRecord
2
BYBLOCK
70
0
0
LTYPE
5
15
100
AcDbSymbolTableRecord
100
AcDbLinetypeTableRecord
2
BYLAYER
70
0
0
ENDTAB
0
TABLE
2
LAYER
5
2
100
AcDbSymbolTable
70
2
0
LAYER
5
50
100
AcDbSymbolTableRecord
100
AcDbLayerTableRecord
2
0
70
0
6
CONTINUOUS
0
ENDTAB
0
TABLE
2
STYLE
5
3
100
AcDbSymbolTable
70
1
0
STYLE
5
11
100
AcDbSymbolTableRecord
100
AcDbTextStyleTableRecord
2
STANDARD
70
0
0
ENDTAB
0
TABLE
2
VIEW
5
6
100
AcDbSymbolTable
70
0
0
ENDTAB
0
TABLE
2
UCS
5
7
100
AcDbSymbolTable
70
0
0
ENDTAB
0
TABLE
2
APPID
5
9
100
AcDbSymbolTable
70
2
0
APPID
5
12
100
AcDbSymbolTableRecord
100
AcDbRegAppTableRecord
2
ACAD
70
0
0
ENDTAB
0
TABLE
2
DIMSTYLE
5
A
100
AcDbSymbolTable
70
1
0
ENDTAB
0
TABLE
2
BLOCK_RECORD
5
1
100
AcDbSymbolTable
70
1
0
BLOCK_RECORD
5
1F
100
AcDbSymbolTableRecord
100
AcDbBlockTableRecord
2
*MODEL_SPACE
0
BLOCK_RECORD
5
1B
100
AcDbSymbolTableRecord
100
AcDbBlockTableRecord
2
*PAPER_SPACE
0
ENDTAB
0
ENDSEC
0
SECTION
2
BLOCKS
0
BLOCK
5
20
100
AcDbEntity
100
AcDbBlockBegin
2
*MODEL_SPACE
0
ENDBLK
5
21
100
AcDbEntity
100
AcDbBlockEnd
0
BLOCK
5
1C
100
AcDbEntity
100
AcDbBlockBegin
2
*PAPER_SPACE
0
ENDBLK
5
1D
100
AcDbEntity
100
AcDbBlockEnd
0
ENDSEC
0
SECTION
2
ENTITIES
0
CIRCLE
5
100
100
AcDbEntity
8
0
100
AcDbCircle
10
0.75538297771163165
20
0.66577996215833823
30
0
40
5
0
LWPOLYLINE
5
101
100
AcDbEntity
8
0
100
AcDbPolyline
90
4
70
1
43
0.0
10
-26.069172646835796
20
-48.79571327001522
10
-28.667248858189112
20
-47.295713270015234
10
-41.167248858189119
20
-68.946348364626189
10
-38.569172646835803
20
-70.446348364626189
0
LWPOLYLINE
5
102
100
AcDbEntity
8
0
100
AcDbPolyline
90
4
70
1
43
0.0
10
-63.569172646835582
20
-113.7476185538483
10
-66.167248858188913
20
-112.24761855384835
10
-78.667248858188628
20
-133.89825364845944
10
-76.069172646835312
20
-135.39825364845942
0
LWPOLYLINE
5
103
100
AcDbEntity
8
0
100
AcDbPolyline
90
4
70
1
43
0.0
10
-55.491804482736462
20
-0.83422003784164034
10
-55.491804482736462
20
2.1657799621583518
10
-80.491804482736455
20
2.1657799621583571
10
-80.491804482736455
20
-0.83422003784163923
0
LWPOLYLINE
5
104
100
AcDbEntity
8
0
100
AcDbPolyline
90
4
70
1
43
0.0
10
-130.49180448273648
20
-0.83422003784194709
10
-130.49180448273654
20
2.1657799621580494
10
-155.49180448273654
20
2.1657799621577372
10
-155.49180448273648
20
-0.83422003784225618
0
LWPOLYLINE
5
105
100
AcDbEntity
8
0
100
AcDbPolyline
90
4
70
1
43
0.0
10
-28.667248858189048
20
48.627273194331941
10
-26.069172646835739
20
50.127273194331934
10
-38.569172646835732
20
71.777908288942911
10
-41.167248858189048
20
70.277908288942911
0
LWPOLYLINE
5
106
100
AcDbEntity
8
0
100
AcDbPolyline
90
4
70
1
43
0.0
10
-66.167248858189311
20
113.57917847816472
10
-63.56917264683603
20
115.07917847816478
10
-76.069172646836293
20
136.72981357277561
10
-78.667248858189595
20
135.22981357277553
0
LWPOLYLINE
5
107
100
AcDbEntity
8
0
100
AcDbPolyline
90
4
70
1
43
0.0
10
57.002570438159729
20
2.1657799621583242
10
57.002570438159729
20
-0.83422003784166865
10
82.002570438159736
20
-0.83422003784167087
10
82.002570438159736
20
2.1657799621583256
0
LWPOLYLINE
5
108
100
AcDbEntity
8
0
100
AcDbPolyline
90
4
70
1
43
0.0
10
157.00257043815981
20
-0.83422003784104115
10
157.00257043815978
20
2.1657799621589522
10
132.00257043815978
20
2.16577996215864
10
132.00257043815981
20
-0.83422003784135668
0
LWPOLYLINE
5
109
100
AcDbEntity
8
0
100
AcDbPolyline
90
4
70
1
43
0.0
10
30.178014813612286
20
-47.29571327001527
10
27.579938602258977
20
-48.79571327001527
10
40.079938602258949
20
-70.446348364626246
10
42.678014813612279
20
-68.94634836462626
0
LWPOLYLINE
5
110
100
AcDbEntity
8
0
100
AcDbPolyline
90
4
70
1
43
0.0
10
67.678014813612521
20
-112.24761855384807
10
65.079938602259233
20
-113.74761855384811
10
77.579938602259489
20
-135.39825364845896
10
80.178014813612776
20
-133.89825364845888
0
LWPOLYLINE
5
111
100
AcDbEntity
8
0
100
AcDbPolyline
90
4
70
1
43
0.0
10
42.678014813612357
20
70.277908288942882
10
40.079938602259034
20
71.777908288942896
10
27.579938602259041
20
50.127273194331906
10
30.178014813612354
20
48.62727319433192
0
LWPOLYLINE
5
112
100
AcDbEntity
8
0
100
AcDbPolyline
90
4
70
1
43
0.0
10
65.079938602258792
20
115.07917847816501
10
67.678014813612151
20
113.57917847816506
10
80.178014813611867
20
135.22981357277615
10
77.579938602258522
20
136.72981357277612
0
CIRCLE
5
113
100
AcDbEntity
8
0
100
AcDbCircle
10
0.75538297771163165
20
0.66577996215833823
30
0
40
200.00000000000003
0
ENDSEC
0
SECTION
2
OBJECTS
0
DICTIONARY
5
C
100
AcDbDictionary
3
ACAD_GROUP
350
D
3
ACAD_MLINESTYLE
350
17
0
DICTIONARY
5
D
100
AcDbDictionary
0
DICTIONARY
5
1A
330
C
100
AcDbDictionary
0
DICTIONARY
5
17
100
AcDbDictionary
0
ENDSEC
0
EOF
